<mxfile host="app.diagrams.net" agent="Mozilla/5.0 (Macintosh; Intel Mac OS X 10_15_7) AppleWebKit/605.1.15 (KHTML, like Gecko) Version/18.6 Safari/605.1.15" version="28.1.1">
  <diagram name="Pagina-1" id="MnMaTp1NcrIObYT-GjtD">
    <mxGraphModel dx="1430" dy="1019" grid="1" gridSize="10" guides="1" tooltips="1" connect="1" arrows="1" fold="1" page="1" pageScale="1" pageWidth="827" pageHeight="1169" math="0" shadow="0">
      <root>
        <mxCell id="0" />
        <mxCell id="1" parent="0" />
        <mxCell id="Nlh5MWxRUOQyulOnam_9-148" value="«system»&lt;br&gt;&lt;b&gt;Camunda&lt;/b&gt;" style="html=1;dropTarget=0;whiteSpace=wrap;verticalAlign=top;labelBackgroundColor=none;fillColor=#dae8fc;strokeColor=#6c8ebf;" parent="1" vertex="1">
          <mxGeometry x="365.07" y="810" width="410" height="190" as="geometry" />
        </mxCell>
        <mxCell id="Nlh5MWxRUOQyulOnam_9-149" value="" style="shape=module;jettyWidth=8;jettyHeight=4;fontColor=light-dark(#000000,#000000);labelBackgroundColor=none;" parent="Nlh5MWxRUOQyulOnam_9-148" vertex="1">
          <mxGeometry x="1" width="20" height="20" relative="1" as="geometry">
            <mxPoint x="-27" y="7" as="offset" />
          </mxGeometry>
        </mxCell>
        <mxCell id="Nlh5MWxRUOQyulOnam_9-144" value="&lt;div&gt;&amp;lt;&amp;lt;subsystem&amp;gt;&amp;gt;&lt;/div&gt;&lt;div&gt;&lt;b&gt;Courier application&lt;/b&gt;&lt;/div&gt;" style="html=1;dropTarget=0;whiteSpace=wrap;verticalAlign=top;fillColor=#dae8fc;strokeColor=#6c8ebf;labelBackgroundColor=none;" parent="1" vertex="1">
          <mxGeometry x="250" y="30" width="1060" height="760" as="geometry" />
        </mxCell>
        <mxCell id="Nlh5MWxRUOQyulOnam_9-145" value="" style="shape=module;jettyWidth=8;jettyHeight=4;fontColor=light-dark(#000000,#000000);labelBackgroundColor=none;" parent="Nlh5MWxRUOQyulOnam_9-144" vertex="1">
          <mxGeometry x="1" width="20" height="20" relative="1" as="geometry">
            <mxPoint x="-27" y="7" as="offset" />
          </mxGeometry>
        </mxCell>
        <mxCell id="Nlh5MWxRUOQyulOnam_9-1" value="«service»&lt;br&gt;&lt;b&gt;Gateway&lt;/b&gt;" style="html=1;dropTarget=0;whiteSpace=wrap;verticalAlign=top;fontColor=#ffffff;labelBackgroundColor=none;fillColor=#1ba1e2;strokeColor=#006EAF;" parent="1" vertex="1">
          <mxGeometry x="382" y="380" width="128.5" height="160" as="geometry" />
        </mxCell>
        <mxCell id="Nlh5MWxRUOQyulOnam_9-2" value="" style="shape=module;jettyWidth=8;jettyHeight=4;fontColor=light-dark(#000000,#000000);labelBackgroundColor=none;" parent="Nlh5MWxRUOQyulOnam_9-1" vertex="1">
          <mxGeometry x="1" width="20" height="20" relative="1" as="geometry">
            <mxPoint x="-27" y="7" as="offset" />
          </mxGeometry>
        </mxCell>
        <mxCell id="Nlh5MWxRUOQyulOnam_9-11" value="«component»&lt;br&gt;&lt;b&gt;Client&lt;/b&gt;" style="html=1;dropTarget=0;whiteSpace=wrap;fontColor=light-dark(#FFFFFF,#000000);labelBackgroundColor=none;fillColor=#1BA1E2;" parent="1" vertex="1">
          <mxGeometry x="100" y="405" width="130" height="70" as="geometry" />
        </mxCell>
        <mxCell id="Nlh5MWxRUOQyulOnam_9-12" value="" style="shape=module;jettyWidth=8;jettyHeight=4;fontColor=light-dark(#000000,#000000);labelBackgroundColor=none;" parent="Nlh5MWxRUOQyulOnam_9-11" vertex="1">
          <mxGeometry x="1" width="20" height="20" relative="1" as="geometry">
            <mxPoint x="-27" y="7" as="offset" />
          </mxGeometry>
        </mxCell>
        <mxCell id="Nlh5MWxRUOQyulOnam_9-18" value="«service»&lt;br&gt;&lt;b&gt;Allocation&lt;/b&gt;" style="html=1;dropTarget=0;whiteSpace=wrap;verticalAlign=top;fontColor=#ffffff;labelBackgroundColor=none;fillColor=#1ba1e2;strokeColor=#006EAF;" parent="1" vertex="1">
          <mxGeometry x="743.5" y="75" width="426.5" height="340" as="geometry" />
        </mxCell>
        <mxCell id="Nlh5MWxRUOQyulOnam_9-19" value="" style="shape=module;jettyWidth=8;jettyHeight=4;fontColor=light-dark(#000000,#000000);labelBackgroundColor=none;" parent="Nlh5MWxRUOQyulOnam_9-18" vertex="1">
          <mxGeometry x="1" width="20" height="20" relative="1" as="geometry">
            <mxPoint x="-27" y="7" as="offset" />
          </mxGeometry>
        </mxCell>
        <mxCell id="Nlh5MWxRUOQyulOnam_9-20" value="«component»&lt;br&gt;&lt;div&gt;&lt;b&gt;Allocation&amp;nbsp;&lt;/b&gt;&lt;/div&gt;&lt;div&gt;&lt;b&gt;Controller&lt;/b&gt;&lt;/div&gt;" style="html=1;dropTarget=0;whiteSpace=wrap;verticalAlign=top;fontColor=#ffffff;labelBackgroundColor=none;fillColor=#0050ef;strokeColor=#001DBC;" parent="1" vertex="1">
          <mxGeometry x="898.5" y="145" width="130" height="50" as="geometry" />
        </mxCell>
        <mxCell id="Nlh5MWxRUOQyulOnam_9-21" value="" style="shape=module;jettyWidth=8;jettyHeight=4;fontColor=light-dark(#000000,#000000);labelBackgroundColor=none;" parent="Nlh5MWxRUOQyulOnam_9-20" vertex="1">
          <mxGeometry x="1" width="20" height="20" relative="1" as="geometry">
            <mxPoint x="-27" y="7" as="offset" />
          </mxGeometry>
        </mxCell>
        <mxCell id="OCHM4eENTmdEQkBeYd0Q-59" style="edgeStyle=orthogonalEdgeStyle;rounded=0;orthogonalLoop=1;jettySize=auto;html=1;entryX=0.5;entryY=0;entryDx=0;entryDy=0;endArrow=none;endFill=0;" edge="1" parent="1" source="Nlh5MWxRUOQyulOnam_9-22" target="OCHM4eENTmdEQkBeYd0Q-57">
          <mxGeometry relative="1" as="geometry">
            <Array as="points">
              <mxPoint x="845" y="390" />
              <mxPoint x="1059" y="390" />
            </Array>
          </mxGeometry>
        </mxCell>
        <mxCell id="Nlh5MWxRUOQyulOnam_9-22" value="«component»&lt;br&gt;&lt;div&gt;&lt;b&gt;AuthService&lt;/b&gt;&lt;/div&gt;" style="html=1;dropTarget=0;whiteSpace=wrap;verticalAlign=top;fontColor=#ffffff;labelBackgroundColor=none;fillColor=#0050ef;strokeColor=#001DBC;" parent="1" vertex="1">
          <mxGeometry x="780" y="245" width="130" height="50" as="geometry" />
        </mxCell>
        <mxCell id="Nlh5MWxRUOQyulOnam_9-23" value="" style="shape=module;jettyWidth=8;jettyHeight=4;fontColor=light-dark(#000000,#000000);labelBackgroundColor=none;" parent="Nlh5MWxRUOQyulOnam_9-22" vertex="1">
          <mxGeometry x="1" width="20" height="20" relative="1" as="geometry">
            <mxPoint x="-27" y="7" as="offset" />
          </mxGeometry>
        </mxCell>
        <mxCell id="OCHM4eENTmdEQkBeYd0Q-56" value="" style="edgeStyle=orthogonalEdgeStyle;rounded=0;orthogonalLoop=1;jettySize=auto;html=1;endArrow=none;endFill=0;" edge="1" parent="1" source="Nlh5MWxRUOQyulOnam_9-24" target="Nlh5MWxRUOQyulOnam_9-134">
          <mxGeometry relative="1" as="geometry" />
        </mxCell>
        <mxCell id="Nlh5MWxRUOQyulOnam_9-24" value="«component»&lt;br&gt;&lt;div&gt;&lt;b&gt;MapsService&lt;/b&gt;&lt;/div&gt;" style="html=1;dropTarget=0;whiteSpace=wrap;verticalAlign=top;fontColor=#ffffff;labelBackgroundColor=none;fillColor=#0050ef;strokeColor=#001DBC;" parent="1" vertex="1">
          <mxGeometry x="1010" y="245" width="130" height="50" as="geometry" />
        </mxCell>
        <mxCell id="Nlh5MWxRUOQyulOnam_9-25" value="" style="shape=module;jettyWidth=8;jettyHeight=4;fontColor=light-dark(#000000,#000000);labelBackgroundColor=none;" parent="Nlh5MWxRUOQyulOnam_9-24" vertex="1">
          <mxGeometry x="1" width="20" height="20" relative="1" as="geometry">
            <mxPoint x="-27" y="7" as="offset" />
          </mxGeometry>
        </mxCell>
        <mxCell id="OCHM4eENTmdEQkBeYd0Q-3" style="edgeStyle=orthogonalEdgeStyle;rounded=0;orthogonalLoop=1;jettySize=auto;html=1;entryX=1;entryY=0.5;entryDx=0;entryDy=0;endArrow=none;endFill=0;" edge="1" parent="1" source="Nlh5MWxRUOQyulOnam_9-28" target="Nlh5MWxRUOQyulOnam_9-11">
          <mxGeometry relative="1" as="geometry" />
        </mxCell>
        <mxCell id="Nlh5MWxRUOQyulOnam_9-28" value="" style="shape=providedRequiredInterface;html=1;verticalLabelPosition=bottom;sketch=0;rotation=-181;fontColor=light-dark(#000000,#000000);labelBackgroundColor=none;fillColor=#0050EF;" parent="1" vertex="1">
          <mxGeometry x="275.5030010159367" y="430.0030010159367" width="20" height="20" as="geometry" />
        </mxCell>
        <mxCell id="OCHM4eENTmdEQkBeYd0Q-5" style="edgeStyle=orthogonalEdgeStyle;rounded=0;orthogonalLoop=1;jettySize=auto;html=1;entryX=0;entryY=0.5;entryDx=0;entryDy=0;endArrow=none;endFill=0;" edge="1" parent="1" source="Nlh5MWxRUOQyulOnam_9-30" target="Nlh5MWxRUOQyulOnam_9-35">
          <mxGeometry relative="1" as="geometry" />
        </mxCell>
        <mxCell id="Nlh5MWxRUOQyulOnam_9-30" value="" style="whiteSpace=wrap;html=1;aspect=fixed;fontColor=light-dark(#000000,#000000);labelBackgroundColor=none;fillColor=#0050EF;" parent="1" vertex="1">
          <mxGeometry x="372" y="430" width="20" height="20" as="geometry" />
        </mxCell>
        <mxCell id="Nlh5MWxRUOQyulOnam_9-31" style="edgeStyle=orthogonalEdgeStyle;rounded=0;orthogonalLoop=1;jettySize=auto;html=1;entryX=0;entryY=0.5;entryDx=0;entryDy=0;entryPerimeter=0;endArrow=none;endFill=0;fontColor=light-dark(#000000,#000000);labelBackgroundColor=none;" parent="1" source="Nlh5MWxRUOQyulOnam_9-30" target="Nlh5MWxRUOQyulOnam_9-28" edge="1">
          <mxGeometry relative="1" as="geometry" />
        </mxCell>
        <mxCell id="Nlh5MWxRUOQyulOnam_9-58" value="REST" style="edgeLabel;html=1;align=center;verticalAlign=middle;resizable=0;points=[];fontColor=light-dark(#000000,#000000);labelBackgroundColor=none;" parent="Nlh5MWxRUOQyulOnam_9-31" vertex="1" connectable="0">
          <mxGeometry x="0.1292" y="1" relative="1" as="geometry">
            <mxPoint x="6" y="9" as="offset" />
          </mxGeometry>
        </mxCell>
        <mxCell id="Nlh5MWxRUOQyulOnam_9-35" value="" style="whiteSpace=wrap;html=1;aspect=fixed;fontColor=light-dark(#000000,#000000);labelBackgroundColor=none;fillColor=#0050EF;" parent="1" vertex="1">
          <mxGeometry x="503.5" y="430" width="20" height="20" as="geometry" />
        </mxCell>
        <mxCell id="Nlh5MWxRUOQyulOnam_9-47" style="edgeStyle=orthogonalEdgeStyle;rounded=0;orthogonalLoop=1;jettySize=auto;html=1;entryX=1;entryY=0.5;entryDx=0;entryDy=0;endArrow=none;endFill=0;fontColor=light-dark(#000000,#000000);labelBackgroundColor=none;" parent="1" source="Nlh5MWxRUOQyulOnam_9-37" target="Nlh5MWxRUOQyulOnam_9-40" edge="1">
          <mxGeometry relative="1" as="geometry">
            <mxPoint x="793.5" y="225" as="targetPoint" />
          </mxGeometry>
        </mxCell>
        <mxCell id="Nlh5MWxRUOQyulOnam_9-37" value="" style="shape=providedRequiredInterface;html=1;verticalLabelPosition=bottom;sketch=0;rotation=-181;fontColor=#ffffff;labelBackgroundColor=none;fillColor=#0050ef;strokeColor=#001DBC;" parent="1" vertex="1">
          <mxGeometry x="823.6730010159367" y="160.00300101593675" width="20" height="20" as="geometry" />
        </mxCell>
        <mxCell id="Nlh5MWxRUOQyulOnam_9-40" value="" style="whiteSpace=wrap;html=1;aspect=fixed;fontColor=#ffffff;labelBackgroundColor=none;fillColor=#0050EF;strokeColor=#6D1F00;" parent="1" vertex="1">
          <mxGeometry x="733.5" y="160" width="20" height="20" as="geometry" />
        </mxCell>
        <mxCell id="Nlh5MWxRUOQyulOnam_9-49" style="edgeStyle=orthogonalEdgeStyle;rounded=0;orthogonalLoop=1;jettySize=auto;html=1;entryX=1;entryY=0.5;entryDx=0;entryDy=0;endArrow=none;endFill=0;fontColor=light-dark(#000000,#000000);labelBackgroundColor=none;" parent="1" source="Nlh5MWxRUOQyulOnam_9-41" target="Nlh5MWxRUOQyulOnam_9-35" edge="1">
          <mxGeometry relative="1" as="geometry" />
        </mxCell>
        <mxCell id="Nlh5MWxRUOQyulOnam_9-56" value="REST" style="edgeLabel;html=1;align=center;verticalAlign=middle;resizable=0;points=[];fontColor=light-dark(#000000,#000000);labelBackgroundColor=none;" parent="Nlh5MWxRUOQyulOnam_9-49" vertex="1" connectable="0">
          <mxGeometry x="-0.1809" y="-2" relative="1" as="geometry">
            <mxPoint x="25" y="3" as="offset" />
          </mxGeometry>
        </mxCell>
        <mxCell id="Nlh5MWxRUOQyulOnam_9-41" value="" style="shape=providedRequiredInterface;html=1;verticalLabelPosition=bottom;sketch=0;rotation=-181;fontColor=light-dark(#000000,#000000);labelBackgroundColor=none;fillColor=#0050EF;" parent="1" vertex="1">
          <mxGeometry x="673.5030010159368" y="160.00300101593675" width="20" height="20" as="geometry" />
        </mxCell>
        <mxCell id="Nlh5MWxRUOQyulOnam_9-48" style="edgeStyle=orthogonalEdgeStyle;rounded=0;orthogonalLoop=1;jettySize=auto;html=1;entryX=0;entryY=0.5;entryDx=0;entryDy=0;entryPerimeter=0;endArrow=none;endFill=0;fontColor=light-dark(#000000,#000000);labelBackgroundColor=none;" parent="1" source="Nlh5MWxRUOQyulOnam_9-40" target="Nlh5MWxRUOQyulOnam_9-41" edge="1">
          <mxGeometry relative="1" as="geometry" />
        </mxCell>
        <mxCell id="Nlh5MWxRUOQyulOnam_9-50" value="API requests" style="text;html=1;align=center;verticalAlign=middle;resizable=0;points=[];autosize=1;strokeColor=none;fillColor=none;fontSize=10;fontColor=light-dark(#000000,#000000);labelBackgroundColor=none;" parent="1" vertex="1">
          <mxGeometry x="643.5" y="135" width="80" height="30" as="geometry" />
        </mxCell>
        <mxCell id="Nlh5MWxRUOQyulOnam_9-72" style="edgeStyle=orthogonalEdgeStyle;rounded=0;orthogonalLoop=1;jettySize=auto;html=1;entryX=0;entryY=0.5;entryDx=0;entryDy=0;endArrow=none;endFill=0;fontColor=light-dark(#000000,#000000);labelBackgroundColor=none;" parent="1" source="Nlh5MWxRUOQyulOnam_9-61" target="Nlh5MWxRUOQyulOnam_9-71" edge="1">
          <mxGeometry relative="1" as="geometry" />
        </mxCell>
        <mxCell id="Nlh5MWxRUOQyulOnam_9-61" value="" style="whiteSpace=wrap;html=1;aspect=fixed;fontColor=light-dark(#000000,#000000);labelBackgroundColor=none;fillColor=#0050EF;" parent="1" vertex="1">
          <mxGeometry x="372" y="480" width="20" height="20" as="geometry" />
        </mxCell>
        <mxCell id="OCHM4eENTmdEQkBeYd0Q-62" style="edgeStyle=orthogonalEdgeStyle;rounded=0;orthogonalLoop=1;jettySize=auto;html=1;entryX=0.5;entryY=0;entryDx=0;entryDy=0;endArrow=none;endFill=0;" edge="1" parent="1" source="Nlh5MWxRUOQyulOnam_9-64" target="OCHM4eENTmdEQkBeYd0Q-60">
          <mxGeometry relative="1" as="geometry">
            <Array as="points">
              <mxPoint x="270" y="490" />
              <mxPoint x="270" y="555" />
              <mxPoint x="341" y="555" />
            </Array>
          </mxGeometry>
        </mxCell>
        <mxCell id="Nlh5MWxRUOQyulOnam_9-64" value="" style="shape=providedRequiredInterface;html=1;verticalLabelPosition=bottom;sketch=0;rotation=-181;fontColor=light-dark(#000000,#000000);labelBackgroundColor=none;fillColor=#0050EF;" parent="1" vertex="1">
          <mxGeometry x="310.5030010159367" y="480.0030010159367" width="20" height="20" as="geometry" />
        </mxCell>
        <mxCell id="Nlh5MWxRUOQyulOnam_9-95" style="edgeStyle=orthogonalEdgeStyle;rounded=0;orthogonalLoop=1;jettySize=auto;html=1;entryX=0;entryY=0.5;entryDx=0;entryDy=0;endArrow=none;endFill=0;fontColor=light-dark(#000000,#000000);labelBackgroundColor=none;" parent="1" source="Nlh5MWxRUOQyulOnam_9-96" target="Nlh5MWxRUOQyulOnam_9-90" edge="1">
          <mxGeometry relative="1" as="geometry" />
        </mxCell>
        <mxCell id="Nlh5MWxRUOQyulOnam_9-71" value="" style="whiteSpace=wrap;html=1;aspect=fixed;fontColor=light-dark(#000000,#000000);labelBackgroundColor=none;fillColor=#0050EF;" parent="1" vertex="1">
          <mxGeometry x="503.5" y="480" width="20" height="20" as="geometry" />
        </mxCell>
        <mxCell id="Nlh5MWxRUOQyulOnam_9-74" value="«service»&lt;br&gt;&lt;b&gt;Tracking&lt;/b&gt;" style="html=1;dropTarget=0;whiteSpace=wrap;verticalAlign=top;fillColor=#1ba1e2;fontColor=#ffffff;strokeColor=#006EAF;labelBackgroundColor=none;" parent="1" vertex="1">
          <mxGeometry x="610" y="450" width="383.5" height="310" as="geometry" />
        </mxCell>
        <mxCell id="Nlh5MWxRUOQyulOnam_9-75" value="" style="shape=module;jettyWidth=8;jettyHeight=4;fontColor=light-dark(#000000,#000000);labelBackgroundColor=none;" parent="Nlh5MWxRUOQyulOnam_9-74" vertex="1">
          <mxGeometry x="1" width="20" height="20" relative="1" as="geometry">
            <mxPoint x="-27" y="7" as="offset" />
          </mxGeometry>
        </mxCell>
        <mxCell id="Nlh5MWxRUOQyulOnam_9-76" value="«component»&lt;br&gt;&lt;div&gt;&lt;b&gt;WSHandler&lt;/b&gt;&lt;/div&gt;" style="html=1;dropTarget=0;whiteSpace=wrap;verticalAlign=top;fillColor=#0050EF;fontColor=light-dark(#FFFFFF,#000000);strokeColor=#2D7600;labelBackgroundColor=none;" parent="1" vertex="1">
          <mxGeometry x="773.5" y="525" width="130" height="50" as="geometry" />
        </mxCell>
        <mxCell id="Nlh5MWxRUOQyulOnam_9-77" value="" style="shape=module;jettyWidth=8;jettyHeight=4;fontColor=light-dark(#000000,#000000);labelBackgroundColor=none;" parent="Nlh5MWxRUOQyulOnam_9-76" vertex="1">
          <mxGeometry x="1" width="20" height="20" relative="1" as="geometry">
            <mxPoint x="-27" y="7" as="offset" />
          </mxGeometry>
        </mxCell>
        <mxCell id="Nlh5MWxRUOQyulOnam_9-153" style="edgeStyle=orthogonalEdgeStyle;rounded=0;orthogonalLoop=1;jettySize=auto;html=1;entryX=0.5;entryY=0;entryDx=0;entryDy=0;endArrow=none;endFill=0;fontColor=light-dark(#000000,#000000);labelBackgroundColor=none;" parent="1" source="Nlh5MWxRUOQyulOnam_9-78" target="Nlh5MWxRUOQyulOnam_9-152" edge="1">
          <mxGeometry relative="1" as="geometry">
            <Array as="points">
              <mxPoint x="924" y="695" />
              <mxPoint x="924" y="760" />
              <mxPoint x="925" y="760" />
            </Array>
          </mxGeometry>
        </mxCell>
        <mxCell id="Nlh5MWxRUOQyulOnam_9-78" value="«component»&lt;br&gt;&lt;div&gt;&lt;b&gt;TaskListService&lt;/b&gt;&lt;/div&gt;" style="html=1;dropTarget=0;whiteSpace=wrap;verticalAlign=top;fillColor=#0050EF;fontColor=light-dark(#FFFFFF,#000000);strokeColor=#2D7600;labelBackgroundColor=none;" parent="1" vertex="1">
          <mxGeometry x="773.5" y="630" width="130" height="50" as="geometry" />
        </mxCell>
        <mxCell id="Nlh5MWxRUOQyulOnam_9-79" value="" style="shape=module;jettyWidth=8;jettyHeight=4;fontColor=light-dark(#000000,#000000);labelBackgroundColor=none;" parent="Nlh5MWxRUOQyulOnam_9-78" vertex="1">
          <mxGeometry x="1" width="20" height="20" relative="1" as="geometry">
            <mxPoint x="-27" y="7" as="offset" />
          </mxGeometry>
        </mxCell>
        <mxCell id="Nlh5MWxRUOQyulOnam_9-114" style="edgeStyle=orthogonalEdgeStyle;rounded=0;orthogonalLoop=1;jettySize=auto;html=1;entryX=0;entryY=0.5;entryDx=0;entryDy=0;endArrow=none;endFill=0;fontColor=light-dark(#000000,#000000);labelBackgroundColor=none;exitX=1;exitY=0.5;exitDx=0;exitDy=0;" parent="1" source="Nlh5MWxRUOQyulOnam_9-76" target="Nlh5MWxRUOQyulOnam_9-113" edge="1">
          <mxGeometry relative="1" as="geometry">
            <mxPoint x="903.5" y="619.9999999999998" as="sourcePoint" />
          </mxGeometry>
        </mxCell>
        <mxCell id="Nlh5MWxRUOQyulOnam_9-84" style="edgeStyle=orthogonalEdgeStyle;rounded=0;orthogonalLoop=1;jettySize=auto;html=1;entryX=1;entryY=0.5;entryDx=0;entryDy=0;endArrow=none;endFill=0;fontColor=light-dark(#000000,#000000);labelBackgroundColor=none;" parent="1" source="Nlh5MWxRUOQyulOnam_9-85" target="Nlh5MWxRUOQyulOnam_9-90" edge="1">
          <mxGeometry relative="1" as="geometry">
            <mxPoint x="668.5" y="620" as="targetPoint" />
          </mxGeometry>
        </mxCell>
        <mxCell id="Nlh5MWxRUOQyulOnam_9-85" value="" style="shape=providedRequiredInterface;html=1;verticalLabelPosition=bottom;sketch=0;rotation=-181;fontColor=light-dark(#000000,#000000);labelBackgroundColor=none;fillColor=#0050EF;" parent="1" vertex="1">
          <mxGeometry x="693.6730010159367" y="540.0030010159368" width="20" height="20" as="geometry" />
        </mxCell>
        <mxCell id="Nlh5MWxRUOQyulOnam_9-90" value="" style="whiteSpace=wrap;html=1;aspect=fixed;fillColor=#0050EF;fontColor=light-dark(#000000,#000000);strokeColor=#2D7600;labelBackgroundColor=none;" parent="1" vertex="1">
          <mxGeometry x="603.5" y="540" width="20" height="20" as="geometry" />
        </mxCell>
        <mxCell id="Nlh5MWxRUOQyulOnam_9-91" style="edgeStyle=orthogonalEdgeStyle;rounded=0;orthogonalLoop=1;jettySize=auto;html=1;entryX=0;entryY=0.5;entryDx=0;entryDy=0;entryPerimeter=0;endArrow=none;endFill=0;fontColor=light-dark(#000000,#000000);labelBackgroundColor=none;" parent="1" source="Nlh5MWxRUOQyulOnam_9-76" target="Nlh5MWxRUOQyulOnam_9-85" edge="1">
          <mxGeometry relative="1" as="geometry" />
        </mxCell>
        <mxCell id="Nlh5MWxRUOQyulOnam_9-99" style="edgeStyle=orthogonalEdgeStyle;rounded=0;orthogonalLoop=1;jettySize=auto;html=1;entryX=1;entryY=0.5;entryDx=0;entryDy=0;endArrow=none;endFill=0;fontColor=light-dark(#000000,#000000);labelBackgroundColor=none;" parent="1" source="Nlh5MWxRUOQyulOnam_9-96" target="Nlh5MWxRUOQyulOnam_9-71" edge="1">
          <mxGeometry relative="1" as="geometry">
            <Array as="points">
              <mxPoint x="543" y="550" />
              <mxPoint x="543" y="490" />
            </Array>
          </mxGeometry>
        </mxCell>
        <mxCell id="Nlh5MWxRUOQyulOnam_9-100" value="WebSocket" style="edgeLabel;html=1;align=center;verticalAlign=middle;resizable=0;points=[];fontColor=light-dark(#000000,#000000);labelBackgroundColor=none;" parent="Nlh5MWxRUOQyulOnam_9-99" vertex="1" connectable="0">
          <mxGeometry x="0.0048" y="1" relative="1" as="geometry">
            <mxPoint x="35" y="-14" as="offset" />
          </mxGeometry>
        </mxCell>
        <mxCell id="Nlh5MWxRUOQyulOnam_9-96" value="" style="shape=providedRequiredInterface;html=1;verticalLabelPosition=bottom;sketch=0;rotation=-181;fontColor=light-dark(#000000,#000000);labelBackgroundColor=none;fillColor=#0050EF;" parent="1" vertex="1">
          <mxGeometry x="553.6730010159367" y="540.0030010159368" width="20" height="20" as="geometry" />
        </mxCell>
        <mxCell id="Nlh5MWxRUOQyulOnam_9-101" value="WebSocket&amp;nbsp;&lt;div&gt;connection&lt;/div&gt;" style="text;html=1;align=center;verticalAlign=middle;resizable=0;points=[];autosize=1;strokeColor=none;fillColor=none;fontSize=10;fontColor=light-dark(#000000,#000000);labelBackgroundColor=none;" parent="1" vertex="1">
          <mxGeometry x="523.5" y="555" width="80" height="40" as="geometry" />
        </mxCell>
        <mxCell id="Nlh5MWxRUOQyulOnam_9-113" value="" style="whiteSpace=wrap;html=1;aspect=fixed;fillColor=#0050EF;fontColor=light-dark(#000000,#000000);strokeColor=#2D7600;labelBackgroundColor=none;" parent="1" vertex="1">
          <mxGeometry x="983.5" y="613.46" width="20" height="20" as="geometry" />
        </mxCell>
        <mxCell id="Nlh5MWxRUOQyulOnam_9-119" style="edgeStyle=orthogonalEdgeStyle;rounded=0;orthogonalLoop=1;jettySize=auto;html=1;exitX=0.5;exitY=1;exitDx=0;exitDy=0;fontColor=light-dark(#000000,#000000);labelBackgroundColor=none;" parent="1" edge="1">
          <mxGeometry relative="1" as="geometry">
            <mxPoint x="1167.04" y="668.46" as="sourcePoint" />
            <mxPoint x="1167.04" y="668.46" as="targetPoint" />
          </mxGeometry>
        </mxCell>
        <mxCell id="Nlh5MWxRUOQyulOnam_9-128" value="«service»&lt;br&gt;&lt;b&gt;Database&lt;/b&gt;" style="html=1;dropTarget=0;whiteSpace=wrap;verticalAlign=top;fillColor=#1ba1e2;fontColor=#ffffff;strokeColor=#006EAF;labelBackgroundColor=none;" parent="1" vertex="1">
          <mxGeometry x="1170" y="578.46" width="130" height="70" as="geometry" />
        </mxCell>
        <mxCell id="Nlh5MWxRUOQyulOnam_9-129" value="" style="shape=module;jettyWidth=8;jettyHeight=4;fontColor=light-dark(#000000,#000000);labelBackgroundColor=none;" parent="Nlh5MWxRUOQyulOnam_9-128" vertex="1">
          <mxGeometry x="1" width="20" height="20" relative="1" as="geometry">
            <mxPoint x="-27" y="7" as="offset" />
          </mxGeometry>
        </mxCell>
        <mxCell id="Nlh5MWxRUOQyulOnam_9-130" value="" style="whiteSpace=wrap;html=1;aspect=fixed;fillColor=light-dark(#0050EF,#7C6E8A);strokeColor=light-dark(#6F0000, #000000);fontColor=light-dark(#000000,#000000);labelBackgroundColor=none;" parent="1" vertex="1">
          <mxGeometry x="1161.04" y="613.46" width="20" height="20" as="geometry" />
        </mxCell>
        <mxCell id="Nlh5MWxRUOQyulOnam_9-131" style="edgeStyle=orthogonalEdgeStyle;rounded=0;orthogonalLoop=1;jettySize=auto;html=1;exitX=0.5;exitY=1;exitDx=0;exitDy=0;fontColor=light-dark(#000000,#000000);labelBackgroundColor=none;" parent="1" source="Nlh5MWxRUOQyulOnam_9-128" target="Nlh5MWxRUOQyulOnam_9-128" edge="1">
          <mxGeometry relative="1" as="geometry" />
        </mxCell>
        <mxCell id="Nlh5MWxRUOQyulOnam_9-132" style="edgeStyle=orthogonalEdgeStyle;rounded=0;orthogonalLoop=1;jettySize=auto;html=1;endArrow=none;endFill=0;strokeColor=light-dark(#000000,#212121);fontColor=light-dark(#000000,#000000);labelBackgroundColor=none;" parent="1" source="Nlh5MWxRUOQyulOnam_9-133" edge="1">
          <mxGeometry relative="1" as="geometry">
            <mxPoint x="1181.04" y="623.46" as="targetPoint" />
          </mxGeometry>
        </mxCell>
        <mxCell id="Nlh5MWxRUOQyulOnam_9-133" value="" style="shape=providedRequiredInterface;html=1;verticalLabelPosition=bottom;sketch=0;rotation=-181;fillColor=light-dark(#0050EF,#7C6E8A);strokeColor=light-dark(#6F0000,#000000);fontColor=light-dark(#000000,#000000);labelBackgroundColor=none;" parent="1" vertex="1">
          <mxGeometry x="1211.2130010159367" y="613.4630010159368" width="20" height="20" as="geometry" />
        </mxCell>
        <mxCell id="Nlh5MWxRUOQyulOnam_9-134" value="" style="whiteSpace=wrap;html=1;aspect=fixed;fontColor=#ffffff;labelBackgroundColor=none;fillColor=#0050ef;strokeColor=#001DBC;" parent="1" vertex="1">
          <mxGeometry x="1161.04" y="260" width="20" height="20" as="geometry" />
        </mxCell>
        <mxCell id="Nlh5MWxRUOQyulOnam_9-142" style="edgeStyle=orthogonalEdgeStyle;rounded=0;orthogonalLoop=1;jettySize=auto;html=1;endArrow=none;endFill=0;fontColor=light-dark(#000000,#000000);labelBackgroundColor=none;entryX=0.5;entryY=1;entryDx=0;entryDy=0;" parent="1" source="Nlh5MWxRUOQyulOnam_9-140" target="OCHM4eENTmdEQkBeYd0Q-57" edge="1">
          <mxGeometry relative="1" as="geometry">
            <mxPoint x="1060" y="498.46000000000004" as="targetPoint" />
          </mxGeometry>
        </mxCell>
        <mxCell id="Nlh5MWxRUOQyulOnam_9-143" value="JDBC" style="edgeLabel;html=1;align=center;verticalAlign=middle;resizable=0;points=[];fontColor=light-dark(#000000,#000000);labelBackgroundColor=none;" parent="Nlh5MWxRUOQyulOnam_9-142" vertex="1" connectable="0">
          <mxGeometry x="0.2215" y="-1" relative="1" as="geometry">
            <mxPoint x="19" y="-11" as="offset" />
          </mxGeometry>
        </mxCell>
        <mxCell id="Nlh5MWxRUOQyulOnam_9-140" value="" style="shape=providedRequiredInterface;html=1;verticalLabelPosition=bottom;sketch=0;rotation=-181;fontColor=light-dark(#000000,#000000);labelBackgroundColor=none;fillColor=#0050EF;" parent="1" vertex="1">
          <mxGeometry x="1081.2130010159367" y="613.4630010159368" width="20" height="20" as="geometry" />
        </mxCell>
        <mxCell id="Nlh5MWxRUOQyulOnam_9-141" style="edgeStyle=orthogonalEdgeStyle;rounded=0;orthogonalLoop=1;jettySize=auto;html=1;entryX=0;entryY=0.5;entryDx=0;entryDy=0;entryPerimeter=0;endArrow=none;endFill=0;fontColor=light-dark(#000000,#000000);labelBackgroundColor=none;" parent="1" source="Nlh5MWxRUOQyulOnam_9-130" target="Nlh5MWxRUOQyulOnam_9-140" edge="1">
          <mxGeometry relative="1" as="geometry" />
        </mxCell>
        <mxCell id="Nlh5MWxRUOQyulOnam_9-146" style="edgeStyle=orthogonalEdgeStyle;rounded=0;orthogonalLoop=1;jettySize=auto;html=1;entryX=0;entryY=0.5;entryDx=0;entryDy=0;entryPerimeter=0;endArrow=none;endFill=0;fontColor=light-dark(#000000,#000000);labelBackgroundColor=none;" parent="1" source="Nlh5MWxRUOQyulOnam_9-61" target="Nlh5MWxRUOQyulOnam_9-64" edge="1">
          <mxGeometry relative="1" as="geometry" />
        </mxCell>
        <mxCell id="Nlh5MWxRUOQyulOnam_9-147" value="WS" style="edgeLabel;html=1;align=center;verticalAlign=middle;resizable=0;points=[];fontColor=light-dark(#000000,#000000);labelBackgroundColor=none;" parent="Nlh5MWxRUOQyulOnam_9-146" vertex="1" connectable="0">
          <mxGeometry x="0.2257" relative="1" as="geometry">
            <mxPoint x="18" y="10" as="offset" />
          </mxGeometry>
        </mxCell>
        <mxCell id="Nlh5MWxRUOQyulOnam_9-150" value="&amp;lt;&amp;lt;service&amp;gt;&amp;gt;&lt;div&gt;&lt;b&gt;TaskList&lt;/b&gt;&lt;/div&gt;" style="html=1;dropTarget=0;whiteSpace=wrap;verticalAlign=top;fontColor=light-dark(#FFFFFF,#000000);labelBackgroundColor=none;fillColor=#1BA1E2;" parent="1" vertex="1">
          <mxGeometry x="480.07" y="870" width="185" height="90" as="geometry" />
        </mxCell>
        <mxCell id="Nlh5MWxRUOQyulOnam_9-151" value="" style="shape=module;jettyWidth=8;jettyHeight=4;fontColor=light-dark(#000000,#000000);labelBackgroundColor=none;" parent="Nlh5MWxRUOQyulOnam_9-150" vertex="1">
          <mxGeometry x="1" width="20" height="20" relative="1" as="geometry">
            <mxPoint x="-27" y="7" as="offset" />
          </mxGeometry>
        </mxCell>
        <mxCell id="Nlh5MWxRUOQyulOnam_9-152" value="" style="whiteSpace=wrap;html=1;aspect=fixed;fillColor=#0050EF;fontColor=light-dark(#000000,#000000);strokeColor=#2D7600;labelBackgroundColor=none;" parent="1" vertex="1">
          <mxGeometry x="915.07" y="750" width="20" height="20" as="geometry" />
        </mxCell>
        <mxCell id="Nlh5MWxRUOQyulOnam_9-154" value="" style="shape=providedRequiredInterface;html=1;verticalLabelPosition=bottom;sketch=0;rotation=-90;fontColor=light-dark(#000000,#000000);labelBackgroundColor=none;fillColor=#0050EF;" parent="1" vertex="1">
          <mxGeometry x="915.0730010159366" y="870.0030010159368" width="20" height="20" as="geometry" />
        </mxCell>
        <mxCell id="Nlh5MWxRUOQyulOnam_9-160" style="edgeStyle=orthogonalEdgeStyle;rounded=0;orthogonalLoop=1;jettySize=auto;html=1;entryX=0;entryY=0.5;entryDx=0;entryDy=0;endArrow=none;endFill=0;fontColor=light-dark(#000000,#000000);labelBackgroundColor=none;" parent="1" source="Nlh5MWxRUOQyulOnam_9-156" target="Nlh5MWxRUOQyulOnam_9-157" edge="1">
          <mxGeometry relative="1" as="geometry" />
        </mxCell>
        <mxCell id="Nlh5MWxRUOQyulOnam_9-156" value="" style="shape=providedRequiredInterface;html=1;verticalLabelPosition=bottom;sketch=0;rotation=0;fontColor=light-dark(#000000,#000000);labelBackgroundColor=none;fillColor=#0050EF;" parent="1" vertex="1">
          <mxGeometry x="585.0699999999999" y="920" width="20" height="20" as="geometry" />
        </mxCell>
        <mxCell id="Nlh5MWxRUOQyulOnam_9-157" value="" style="whiteSpace=wrap;html=1;aspect=fixed;fontColor=light-dark(#000000,#000000);labelBackgroundColor=none;fillColor=#0050EF;" parent="1" vertex="1">
          <mxGeometry x="653.5699999999999" y="920" width="20" height="20" as="geometry" />
        </mxCell>
        <mxCell id="Nlh5MWxRUOQyulOnam_9-161" style="edgeStyle=orthogonalEdgeStyle;rounded=0;orthogonalLoop=1;jettySize=auto;html=1;entryX=0;entryY=0.5;entryDx=0;entryDy=0;entryPerimeter=0;endArrow=none;endFill=0;fontColor=light-dark(#000000,#000000);labelBackgroundColor=none;" parent="1" source="Nlh5MWxRUOQyulOnam_9-157" target="Nlh5MWxRUOQyulOnam_9-154" edge="1">
          <mxGeometry relative="1" as="geometry" />
        </mxCell>
        <mxCell id="Nlh5MWxRUOQyulOnam_9-162" value="REST" style="edgeLabel;html=1;align=center;verticalAlign=middle;resizable=0;points=[];fontColor=light-dark(#000000,#000000);labelBackgroundColor=none;" parent="Nlh5MWxRUOQyulOnam_9-161" vertex="1" connectable="0">
          <mxGeometry x="0.1096" y="1" relative="1" as="geometry">
            <mxPoint y="-9" as="offset" />
          </mxGeometry>
        </mxCell>
        <mxCell id="Nlh5MWxRUOQyulOnam_9-170" style="edgeStyle=orthogonalEdgeStyle;rounded=0;orthogonalLoop=1;jettySize=auto;html=1;entryX=0;entryY=0.5;entryDx=0;entryDy=0;entryPerimeter=0;endArrow=none;endFill=0;" parent="1" source="Nlh5MWxRUOQyulOnam_9-20" target="Nlh5MWxRUOQyulOnam_9-37" edge="1">
          <mxGeometry relative="1" as="geometry" />
        </mxCell>
        <mxCell id="Nlh5MWxRUOQyulOnam_9-171" value="Courier API" style="text;html=1;align=center;verticalAlign=middle;resizable=0;points=[];autosize=1;strokeColor=none;fillColor=none;" parent="1" vertex="1">
          <mxGeometry x="255.5" y="400" width="90" height="30" as="geometry" />
        </mxCell>
        <mxCell id="Nlh5MWxRUOQyulOnam_9-172" value="WebSocket&amp;nbsp;&lt;div&gt;Connection&lt;/div&gt;" style="text;html=1;align=center;verticalAlign=middle;resizable=0;points=[];autosize=1;strokeColor=none;fillColor=none;" parent="1" vertex="1">
          <mxGeometry x="275.5" y="500" width="90" height="40" as="geometry" />
        </mxCell>
        <mxCell id="Nlh5MWxRUOQyulOnam_9-173" value="Allocation API and&lt;div&gt;OrderAPI&lt;/div&gt;" style="text;html=1;align=center;verticalAlign=middle;resizable=0;points=[];autosize=1;strokeColor=none;fillColor=none;fontSize=10;fontColor=light-dark(#FFFFFF,#000000);labelBackgroundColor=none;" parent="1" vertex="1">
          <mxGeometry x="778.67" y="125" width="110" height="40" as="geometry" />
        </mxCell>
        <mxCell id="Nlh5MWxRUOQyulOnam_9-177" value="DB&amp;nbsp;&lt;div&gt;Connection&lt;/div&gt;" style="text;html=1;align=center;verticalAlign=middle;resizable=0;points=[];autosize=1;strokeColor=none;fillColor=none;fontSize=10;fontColor=light-dark(#000000,#000000);labelBackgroundColor=none;" parent="1" vertex="1">
          <mxGeometry x="1060" y="578.46" width="70" height="40" as="geometry" />
        </mxCell>
        <mxCell id="Nlh5MWxRUOQyulOnam_9-180" value="WebSocket&amp;nbsp;&lt;div&gt;connection&lt;/div&gt;" style="text;html=1;align=center;verticalAlign=middle;resizable=0;points=[];autosize=1;strokeColor=none;fillColor=none;fontSize=10;fontColor=light-dark(#FFFFFF,#000000);labelBackgroundColor=none;" parent="1" vertex="1">
          <mxGeometry x="663.67" y="555" width="80" height="40" as="geometry" />
        </mxCell>
        <mxCell id="Nlh5MWxRUOQyulOnam_9-182" value="Camunda&#39;s Task API" style="text;html=1;align=center;verticalAlign=middle;resizable=0;points=[];autosize=1;strokeColor=none;fillColor=none;fontSize=10;fontColor=light-dark(#000000,#000000);labelBackgroundColor=none;" parent="1" vertex="1">
          <mxGeometry x="800" y="850" width="120" height="30" as="geometry" />
        </mxCell>
        <mxCell id="OCHM4eENTmdEQkBeYd0Q-6" value="Use" style="endArrow=open;endSize=12;dashed=1;html=1;rounded=0;entryX=0.5;entryY=0;entryDx=0;entryDy=0;labelBackgroundColor=none;fontColor=#FFFFFF;exitX=0.25;exitY=1;exitDx=0;exitDy=0;" edge="1" parent="1" source="Nlh5MWxRUOQyulOnam_9-20" target="Nlh5MWxRUOQyulOnam_9-22">
          <mxGeometry x="0.1853" y="-10" width="160" relative="1" as="geometry">
            <mxPoint x="810" y="355" as="sourcePoint" />
            <mxPoint x="964" y="235" as="targetPoint" />
            <Array as="points">
              <mxPoint x="930" y="225" />
              <mxPoint x="845" y="225" />
            </Array>
            <mxPoint as="offset" />
          </mxGeometry>
        </mxCell>
        <mxCell id="OCHM4eENTmdEQkBeYd0Q-58" style="edgeStyle=orthogonalEdgeStyle;rounded=0;orthogonalLoop=1;jettySize=auto;html=1;entryX=0.5;entryY=0;entryDx=0;entryDy=0;endArrow=none;endFill=0;" edge="1" parent="1" source="OCHM4eENTmdEQkBeYd0Q-11" target="OCHM4eENTmdEQkBeYd0Q-57">
          <mxGeometry relative="1" as="geometry" />
        </mxCell>
        <mxCell id="OCHM4eENTmdEQkBeYd0Q-11" value="«component»&lt;br&gt;&lt;div&gt;&lt;b&gt;AllocationService&lt;/b&gt;&lt;/div&gt;" style="html=1;dropTarget=0;whiteSpace=wrap;verticalAlign=top;fontColor=#ffffff;labelBackgroundColor=none;fillColor=#0050ef;strokeColor=#001DBC;" vertex="1" parent="1">
          <mxGeometry x="898.5" y="315" width="130" height="50" as="geometry" />
        </mxCell>
        <mxCell id="OCHM4eENTmdEQkBeYd0Q-12" value="" style="shape=module;jettyWidth=8;jettyHeight=4;fontColor=light-dark(#000000,#000000);labelBackgroundColor=none;" vertex="1" parent="OCHM4eENTmdEQkBeYd0Q-11">
          <mxGeometry x="1" width="20" height="20" relative="1" as="geometry">
            <mxPoint x="-27" y="7" as="offset" />
          </mxGeometry>
        </mxCell>
        <mxCell id="OCHM4eENTmdEQkBeYd0Q-14" value="Use" style="endArrow=open;endSize=12;dashed=1;html=1;rounded=0;exitX=0.5;exitY=1;exitDx=0;exitDy=0;entryX=0.5;entryY=0;entryDx=0;entryDy=0;labelBackgroundColor=none;fontColor=#FFFFFF;" edge="1" parent="1" source="Nlh5MWxRUOQyulOnam_9-20" target="OCHM4eENTmdEQkBeYd0Q-11">
          <mxGeometry x="-0.1667" y="-13" width="160" relative="1" as="geometry">
            <mxPoint x="920" y="315" as="sourcePoint" />
            <mxPoint x="1080" y="315" as="targetPoint" />
            <mxPoint as="offset" />
          </mxGeometry>
        </mxCell>
        <mxCell id="OCHM4eENTmdEQkBeYd0Q-17" value="Use" style="endArrow=open;endSize=12;dashed=1;html=1;rounded=0;entryX=0.5;entryY=0;entryDx=0;entryDy=0;labelBackgroundColor=none;fontColor=#FFFFFF;exitX=0.25;exitY=1;exitDx=0;exitDy=0;" edge="1" parent="1" target="Nlh5MWxRUOQyulOnam_9-24">
          <mxGeometry x="0.154" y="10" width="160" relative="1" as="geometry">
            <mxPoint x="996" y="195" as="sourcePoint" />
            <mxPoint x="910" y="245" as="targetPoint" />
            <Array as="points">
              <mxPoint x="995" y="225" />
              <mxPoint x="1075" y="225" />
            </Array>
            <mxPoint as="offset" />
          </mxGeometry>
        </mxCell>
        <mxCell id="OCHM4eENTmdEQkBeYd0Q-40" style="edgeStyle=orthogonalEdgeStyle;rounded=0;orthogonalLoop=1;jettySize=auto;html=1;exitX=0.5;exitY=1;exitDx=0;exitDy=0;fontColor=light-dark(#000000,#000000);labelBackgroundColor=none;" edge="1" parent="1">
          <mxGeometry relative="1" as="geometry">
            <mxPoint x="1337.04" y="498.46000000000004" as="sourcePoint" />
            <mxPoint x="1337.04" y="498.46000000000004" as="targetPoint" />
          </mxGeometry>
        </mxCell>
        <mxCell id="OCHM4eENTmdEQkBeYd0Q-41" value="«service»&lt;br&gt;&lt;b&gt;DistanceMatrix&lt;/b&gt;" style="html=1;dropTarget=0;whiteSpace=wrap;verticalAlign=top;fillColor=#1ba1e2;fontColor=#ffffff;strokeColor=#006EAF;labelBackgroundColor=none;" vertex="1" parent="1">
          <mxGeometry x="993.5" y="880" width="130" height="70" as="geometry" />
        </mxCell>
        <mxCell id="OCHM4eENTmdEQkBeYd0Q-42" value="" style="shape=module;jettyWidth=8;jettyHeight=4;fontColor=light-dark(#000000,#000000);labelBackgroundColor=none;" vertex="1" parent="OCHM4eENTmdEQkBeYd0Q-41">
          <mxGeometry x="1" width="20" height="20" relative="1" as="geometry">
            <mxPoint x="-27" y="7" as="offset" />
          </mxGeometry>
        </mxCell>
        <mxCell id="OCHM4eENTmdEQkBeYd0Q-44" style="edgeStyle=orthogonalEdgeStyle;rounded=0;orthogonalLoop=1;jettySize=auto;html=1;exitX=0.5;exitY=1;exitDx=0;exitDy=0;fontColor=light-dark(#000000,#000000);labelBackgroundColor=none;" edge="1" parent="1" source="OCHM4eENTmdEQkBeYd0Q-41" target="OCHM4eENTmdEQkBeYd0Q-41">
          <mxGeometry relative="1" as="geometry" />
        </mxCell>
        <mxCell id="OCHM4eENTmdEQkBeYd0Q-46" value="" style="shape=providedRequiredInterface;html=1;verticalLabelPosition=bottom;sketch=0;rotation=0;fillColor=light-dark(#0050EF,#7C6E8A);strokeColor=light-dark(#6F0000,#000000);fontColor=light-dark(#000000,#000000);labelBackgroundColor=none;" vertex="1" parent="1">
          <mxGeometry x="1058.5030010159367" y="920.0030010159367" width="20" height="20" as="geometry" />
        </mxCell>
        <mxCell id="OCHM4eENTmdEQkBeYd0Q-47" style="edgeStyle=orthogonalEdgeStyle;rounded=0;orthogonalLoop=1;jettySize=auto;html=1;endArrow=none;endFill=0;fontColor=light-dark(#000000,#000000);labelBackgroundColor=none;entryX=1;entryY=0.5;entryDx=0;entryDy=0;" edge="1" parent="1" source="OCHM4eENTmdEQkBeYd0Q-49" target="Nlh5MWxRUOQyulOnam_9-134">
          <mxGeometry relative="1" as="geometry">
            <mxPoint x="1430" y="380" as="targetPoint" />
            <Array as="points">
              <mxPoint x="1340" y="930" />
              <mxPoint x="1340" y="270" />
            </Array>
          </mxGeometry>
        </mxCell>
        <mxCell id="OCHM4eENTmdEQkBeYd0Q-48" value="REST" style="edgeLabel;html=1;align=center;verticalAlign=middle;resizable=0;points=[];fontColor=light-dark(#000000,#000000);labelBackgroundColor=none;" vertex="1" connectable="0" parent="OCHM4eENTmdEQkBeYd0Q-47">
          <mxGeometry x="0.2215" y="-1" relative="1" as="geometry">
            <mxPoint x="19" y="-12" as="offset" />
          </mxGeometry>
        </mxCell>
        <mxCell id="OCHM4eENTmdEQkBeYd0Q-49" value="" style="shape=providedRequiredInterface;html=1;verticalLabelPosition=bottom;sketch=0;rotation=0;fontColor=light-dark(#000000,#000000);labelBackgroundColor=none;fillColor=#0050EF;" vertex="1" parent="1">
          <mxGeometry x="1193.5030010159367" y="920.0030010159368" width="20" height="20" as="geometry" />
        </mxCell>
        <mxCell id="OCHM4eENTmdEQkBeYd0Q-50" style="edgeStyle=orthogonalEdgeStyle;rounded=0;orthogonalLoop=1;jettySize=auto;html=1;entryX=0;entryY=0.5;entryDx=0;entryDy=0;entryPerimeter=0;endArrow=none;endFill=0;fontColor=light-dark(#000000,#000000);labelBackgroundColor=none;" edge="1" parent="1" source="OCHM4eENTmdEQkBeYd0Q-43" target="OCHM4eENTmdEQkBeYd0Q-49">
          <mxGeometry relative="1" as="geometry" />
        </mxCell>
        <mxCell id="OCHM4eENTmdEQkBeYd0Q-51" value="DistanceMatrix API" style="text;html=1;align=center;verticalAlign=middle;resizable=0;points=[];autosize=1;strokeColor=none;fillColor=none;fontSize=10;fontColor=light-dark(#000000,#000000);labelBackgroundColor=none;" vertex="1" parent="1">
          <mxGeometry x="1148.5" y="890" width="110" height="30" as="geometry" />
        </mxCell>
        <mxCell id="OCHM4eENTmdEQkBeYd0Q-53" style="edgeStyle=orthogonalEdgeStyle;rounded=0;orthogonalLoop=1;jettySize=auto;html=1;entryX=1;entryY=0.5;entryDx=0;entryDy=0;entryPerimeter=0;endArrow=none;endFill=0;" edge="1" parent="1" source="Nlh5MWxRUOQyulOnam_9-152" target="Nlh5MWxRUOQyulOnam_9-154">
          <mxGeometry relative="1" as="geometry" />
        </mxCell>
        <mxCell id="OCHM4eENTmdEQkBeYd0Q-55" value="" style="edgeStyle=orthogonalEdgeStyle;rounded=0;orthogonalLoop=1;jettySize=auto;html=1;endArrow=none;endFill=0;strokeColor=light-dark(#000000,#212121);fontColor=light-dark(#000000,#000000);labelBackgroundColor=none;" edge="1" parent="1" source="OCHM4eENTmdEQkBeYd0Q-46" target="OCHM4eENTmdEQkBeYd0Q-43">
          <mxGeometry relative="1" as="geometry">
            <mxPoint x="1614.54" y="305" as="targetPoint" />
            <mxPoint x="1078.5" y="930" as="sourcePoint" />
          </mxGeometry>
        </mxCell>
        <mxCell id="OCHM4eENTmdEQkBeYd0Q-43" value="" style="whiteSpace=wrap;html=1;aspect=fixed;fillColor=light-dark(#0050EF,#7C6E8A);strokeColor=light-dark(#6F0000, #000000);fontColor=light-dark(#000000,#000000);labelBackgroundColor=none;" vertex="1" parent="1">
          <mxGeometry x="1113.5" y="920" width="20" height="20" as="geometry" />
        </mxCell>
        <mxCell id="OCHM4eENTmdEQkBeYd0Q-57" value="" style="whiteSpace=wrap;html=1;aspect=fixed;fontColor=#ffffff;labelBackgroundColor=none;fillColor=#0050ef;strokeColor=#001DBC;" vertex="1" parent="1">
          <mxGeometry x="1048.5" y="405" width="20" height="20" as="geometry" />
        </mxCell>
        <mxCell id="OCHM4eENTmdEQkBeYd0Q-60" value="«component»&lt;br&gt;&lt;b&gt;Rider&lt;/b&gt;" style="html=1;dropTarget=0;whiteSpace=wrap;fontColor=light-dark(#FFFFFF,#000000);labelBackgroundColor=none;fillColor=#1BA1E2;" vertex="1" parent="1">
          <mxGeometry x="275.5" y="610" width="130" height="70" as="geometry" />
        </mxCell>
        <mxCell id="OCHM4eENTmdEQkBeYd0Q-61" value="" style="shape=module;jettyWidth=8;jettyHeight=4;fontColor=light-dark(#000000,#000000);labelBackgroundColor=none;" vertex="1" parent="OCHM4eENTmdEQkBeYd0Q-60">
          <mxGeometry x="1" width="20" height="20" relative="1" as="geometry">
            <mxPoint x="-27" y="7" as="offset" />
          </mxGeometry>
        </mxCell>
        <mxCell id="OCHM4eENTmdEQkBeYd0Q-63" value="Use" style="endArrow=open;endSize=12;dashed=1;html=1;rounded=0;exitX=0.5;exitY=1;exitDx=0;exitDy=0;entryX=0.5;entryY=0;entryDx=0;entryDy=0;labelBackgroundColor=none;fontColor=light-dark(#ffffff, #ededed);" edge="1" parent="1" source="Nlh5MWxRUOQyulOnam_9-76" target="Nlh5MWxRUOQyulOnam_9-78">
          <mxGeometry x="-0.0909" y="12" width="160" relative="1" as="geometry">
            <mxPoint x="650" y="650" as="sourcePoint" />
            <mxPoint x="810" y="650" as="targetPoint" />
            <mxPoint as="offset" />
          </mxGeometry>
        </mxCell>
        <mxCell id="OCHM4eENTmdEQkBeYd0Q-64" style="edgeStyle=orthogonalEdgeStyle;rounded=0;orthogonalLoop=1;jettySize=auto;html=1;entryX=1;entryY=0.5;entryDx=0;entryDy=0;entryPerimeter=0;endArrow=none;endFill=0;" edge="1" parent="1" source="Nlh5MWxRUOQyulOnam_9-113" target="Nlh5MWxRUOQyulOnam_9-140">
          <mxGeometry relative="1" as="geometry" />
        </mxCell>
        <mxCell id="OCHM4eENTmdEQkBeYd0Q-65" value="JDBC" style="edgeLabel;html=1;align=center;verticalAlign=middle;resizable=0;points=[];fontColor=light-dark(#000000,#000000);labelBackgroundColor=none;" vertex="1" connectable="0" parent="1">
          <mxGeometry x="1028.5" y="633.46" as="geometry" />
        </mxCell>
      </root>
    </mxGraphModel>
  </diagram>
</mxfile>
